<svg xmlns="http://www.w3.org/2000/svg" xmlns:xlink="http://www.w3.org/1999/xlink" width="235" height="64" viewBox="0 0 235 64">
    <defs>
        <path id="a" d="M.447 8.381h4.587V.432H.447z"/>
        <path id="c" d="M0 63.91h234.87V0H0z"/>
    </defs>
    <g fill="none" fill-rule="evenodd">
        <path fill="#005293" d="M66.226 12.424c1.985 4.221-3.371 8.52-6.134 10.163 1.778-2.801 1.758-4.95.91-6.351-2.583-4.285-17.021-3.965-32.018 1.793C13.99 23.785-.51 33.785 1.822 38.566c.765 1.57 3.268 1.936 6.624 1.38-4.207.964-7.14 1.278-8.188-.949-2.428-5.158 12.65-17.757 30.16-24.48 17.51-6.722 33.381-7.25 35.808-2.093z"/>
        <path fill="#E05206" d="M28.516 3.436c-6.8-7.79-19.729-1.376-19.79 9.663-.015 3.04 1.217 6.55 2.964 9.892a87.863 87.863 0 0 1 12.526-7.127c-3.683-8.322-2.36-13.93 4.3-12.428M38.633 5.457c4.2-1.345 6.81.091 7.454 3.319 3.289-.58 6.279-.956 8.911-.965-3.078-7.05-11.278-9.1-16.365-2.354M26.897 21.384c-4.496 1.986-8.927 4.137-12.614 6.492 7.066 10.688 18.76 20.494 18.76 20.494s6.178-6.064 9.202-9.974c-6.266-5.868-12.222-11.817-15.348-17.012M45.714 16.076c-1.057 3.682-3.621 7.936-7.167 12.926 2.038 2.14 6.8 5.916 6.82 5.874 4.836-4.978 9.786-11.79 10.452-18.845-2.775-.474-5.92-.545-10.105.045"/>
        <path fill="#005293" d="M78.595 63.724h-1.41V52.78h1.41c.93 0 1.457.108 2.015.418.775.42 1.27 1.32 1.27 2.314 0 .917-.449 1.74-1.286 2.33 1.007.465 1.627 1.505 1.627 2.747 0 1.987-1.333 3.136-3.626 3.136m1.162-9.548c-.34-.202-.512-.233-1.162-.249v3.462c1.21-.014 1.89-.651 1.89-1.769 0-.59-.294-1.195-.728-1.444m.124 4.642c-.388-.186-.589-.233-1.286-.28v4.037c1.41-.016 2.169-.746 2.169-2.064 0-.762-.325-1.398-.883-1.693M85.569 63.91c-1.643 0-2.527-1.397-2.527-4.005 0-2.516.9-3.944 2.48-3.944 1.503 0 2.402 1.335 2.402 3.586 0 .124-.015.28-.015.435v.063h-3.55v.31c0 1.567.435 2.406 1.225 2.406.635 0 .961-.466 1.054-1.46h1.286c-.17 1.647-1.038 2.609-2.355 2.609m1.007-5.061c0-1.072-.402-1.74-1.038-1.74-.698 0-1.023.544-1.147 1.88h2.185v-.14M90.606 57.265v6.46h-1.287v-6.46h-.805v-1.118h.805v-2.545l1.287-.637v3.182h.821v1.118zM93.814 57.265v6.46h-1.287v-6.46h-.806v-1.118h.806v-2.545l1.287-.637v3.182h.821v1.118zM97.765 63.91c-1.642 0-2.525-1.397-2.525-4.005 0-2.516.898-3.944 2.478-3.944 1.504 0 2.403 1.335 2.403 3.586 0 .124-.015.28-.015.435v.063h-3.55v.31c0 1.567.434 2.406 1.225 2.406.635 0 .96-.466 1.054-1.46h1.286c-.17 1.647-1.04 2.609-2.356 2.609m1.007-5.061c0-1.072-.402-1.74-1.038-1.74-.697 0-1.023.544-1.147 1.88h2.185v-.14M103.53 57.451c-.248.11-.45.28-.605.498-.248.325-.31.62-.31 1.35v4.425h-1.286v-7.577h1.147v1.072c.496-.854 1.085-1.258 1.875-1.258h.171v1.29c-.48.014-.651.045-.992.2M111.635 63.724v-5.48c0-.746-.28-1.134-.806-1.134-.635 0-.946.512-.946 1.583v5.031h-1.286V52.78h1.286v3.959c.373-.513.853-.777 1.426-.777 1.008 0 1.613.745 1.613 2.019v5.744h-1.287M116.594 63.91c-1.643 0-2.526-1.397-2.526-4.005 0-2.516.899-3.944 2.48-3.944 1.503 0 2.402 1.335 2.402 3.586 0 .124-.016.28-.016.435v.063h-3.548v.31c0 1.567.433 2.406 1.223 2.406.636 0 .962-.466 1.055-1.46h1.286c-.17 1.647-1.039 2.609-2.356 2.609m1.008-5.061c0-1.072-.403-1.74-1.038-1.74-.698 0-1.024.544-1.148 1.88h2.186v-.14"/>
        <g transform="translate(119.401 55.53)">
            <mask id="b" fill="#fff">
                <use xlink:href="#a"/>
            </mask>
            <path fill="#005293" d="M3.904 8.195v-.823c-.497.73-.946 1.01-1.582 1.01-1.115 0-1.875-1.103-1.875-2.718 0-1.553.821-2.608 2.046-2.608.465 0 .806.124 1.27.48V3.32c0-.668-.03-.886-.107-1.15-.156-.418-.59-.651-1.226-.651-.464 0-.929.093-1.394.31V.681a4.893 4.893 0 0 1 1.58-.249c.605 0 1.085.11 1.52.341.666.358.898.901.898 2.034v5.388h-1.13zM2.787 4.174c-.65 0-1.007.528-1.007 1.49 0 .932.34 1.475.96 1.475.636 0 1.024-.543 1.024-1.49s-.357-1.475-.977-1.475z" mask="url(#b)"/>
        </g>
        <mask id="d" fill="#fff">
            <use xlink:href="#c"/>
        </mask>
        <path fill="#005293" d="M125.985 63.724h1.287V52.78h-1.287zM130.325 57.265v6.46h-1.286v-6.46h-.806v-1.118h.806v-2.545l1.286-.637v3.182h.821v1.118zM135.098 63.724v-5.48c0-.746-.279-1.134-.806-1.134-.636 0-.945.512-.945 1.583v5.031h-1.286V52.78h1.286v3.959c.372-.513.852-.777 1.426-.777 1.007 0 1.611.745 1.611 2.019v5.744h-1.286M138.089 63.724h1.457V61.97h-1.457zM146.271 63.724h-1.41V52.78h1.41c.93 0 1.457.108 2.015.418.775.42 1.27 1.32 1.27 2.314 0 .917-.448 1.74-1.286 2.33 1.007.465 1.628 1.505 1.628 2.747 0 1.987-1.333 3.136-3.627 3.136m1.162-9.548c-.34-.202-.51-.233-1.162-.249v3.462c1.21-.014 1.89-.651 1.89-1.769 0-.59-.294-1.195-.728-1.444m.125 4.642c-.388-.186-.59-.233-1.287-.28v4.037c1.41-.016 2.17-.746 2.17-2.064 0-.762-.326-1.398-.883-1.693M153.245 63.91c-1.643 0-2.526-1.397-2.526-4.005 0-2.516.899-3.944 2.48-3.944 1.503 0 2.402 1.335 2.402 3.586 0 .124-.016.28-.016.435v.063h-3.55v.31c0 1.567.435 2.406 1.225 2.406.635 0 .962-.466 1.054-1.46h1.287c-.171 1.647-1.039 2.609-2.356 2.609m1.007-5.061c0-1.072-.402-1.74-1.038-1.74-.698 0-1.023.544-1.147 1.88h2.185v-.14M157.925 63.91a2.99 2.99 0 0 1-1.533-.403v-1.258c.526.388.945.543 1.378.543.497 0 .9-.357.9-.807 0-.233-.11-.543-.295-.87-.14-.217-.388-.605-.666-1.008l-.372-.544c-.59-.854-.806-1.397-.806-1.956 0-.963.775-1.646 1.89-1.646.465 0 .884.109 1.334.326v1.18c-.435-.264-.775-.388-1.116-.388-.435 0-.76.295-.76.683 0 .249.108.466.434.962l.403.606.511.73c.543.792.807 1.475.807 2.034 0 1.056-.884 1.816-2.109 1.816M162.637 57.265v6.46h-1.287v-6.46h-.805v-1.118h.805v-2.545l1.287-.637v3.182h.821v1.118zM167.906 54.703h1.286v-1.599h-1.286v1.6zm0 9.021h1.286v-7.577h-1.286v7.577zM173.81 63.724v-5.48c0-.746-.279-1.134-.806-1.134-.636 0-.945.512-.945 1.583v5.031h-1.286v-7.577h1.147v.823c.387-.667.914-1.009 1.565-1.009 1.007 0 1.611.745 1.611 2.019v5.744h-1.286M183.078 63.724v-5.48c0-.746-.28-1.134-.806-1.134-.636 0-.946.512-.946 1.583v5.031h-1.286V52.78h1.286v3.959c.372-.513.852-.777 1.426-.777 1.007 0 1.612.745 1.612 2.019v5.744h-1.286M188.036 63.91c-1.642 0-2.525-1.397-2.525-4.005 0-2.516.898-3.944 2.479-3.944 1.503 0 2.403 1.335 2.403 3.586 0 .124-.016.28-.016.435v.063h-3.55v.31c0 1.567.434 2.406 1.225 2.406.635 0 .96-.466 1.054-1.46h1.287c-.172 1.647-1.04 2.609-2.357 2.609m1.007-5.061c0-1.072-.402-1.74-1.038-1.74-.697 0-1.023.544-1.147 1.88h2.185v-.14M194.746 63.724v-.823c-.496.73-.945 1.01-1.58 1.01-1.116 0-1.875-1.102-1.875-2.718 0-1.552.82-2.608 2.045-2.608.465 0 .806.124 1.271.481v-.217c0-.668-.03-.885-.109-1.149-.154-.42-.588-.652-1.223-.652-.466 0-.93.093-1.395.31V56.21a4.882 4.882 0 0 1 1.58-.249c.605 0 1.086.11 1.519.342.666.357.899.9.899 2.033v5.388h-1.132zm-1.115-4.021c-.651 0-1.008.528-1.008 1.49 0 .932.341 1.475.961 1.475.636 0 1.023-.543 1.023-1.49s-.357-1.475-.976-1.475zM197.428 63.724h1.286V52.78h-1.286zM201.768 57.265v6.46h-1.287v-6.46h-.805v-1.118h.805v-2.545l1.287-.637v3.182h.82v1.118zM206.54 63.724v-5.48c0-.746-.278-1.134-.805-1.134-.636 0-.947.512-.947 1.583v5.031h-1.285V52.78h1.285v3.959c.373-.513.853-.777 1.426-.777 1.009 0 1.613.745 1.613 2.019v5.744h-1.287M214.893 63.91c-1.472 0-2.37-1.49-2.37-3.974 0-2.5.898-3.975 2.386-3.975.837 0 1.442.512 1.859 1.552l-1.007.56c-.248-.668-.512-.963-.868-.963-.697 0-1.007.885-1.007 2.826 0 1.972.31 2.825 1.023 2.825.48 0 .79-.403.945-1.226l1.07.652c-.45 1.132-1.132 1.723-2.03 1.723M221.123 63.724v-.823c-.495.73-.945 1.01-1.58 1.01-1.116 0-1.876-1.102-1.876-2.718 0-1.552.822-2.608 2.046-2.608.465 0 .806.124 1.27.481v-.217c0-.668-.031-.885-.107-1.149-.155-.42-.59-.652-1.226-.652-.464 0-.929.093-1.395.31V56.21a4.9 4.9 0 0 1 1.582-.249c.604 0 1.084.11 1.519.342.667.357.898.9.898 2.033v5.388h-1.13zm-1.116-4.021c-.65 0-1.007.528-1.007 1.49 0 .932.341 1.475.961 1.475.636 0 1.022-.543 1.022-1.49s-.355-1.475-.976-1.475zM225.958 57.451a1.46 1.46 0 0 0-.605.498c-.248.325-.31.62-.31 1.35v4.425h-1.285v-7.577h1.147v1.072c.496-.854 1.083-1.258 1.874-1.258h.17v1.29c-.48.014-.65.045-.991.2M229.755 63.91c-1.643 0-2.526-1.397-2.526-4.005 0-2.516.899-3.944 2.48-3.944 1.503 0 2.402 1.335 2.402 3.586 0 .124-.015.28-.015.435v.063h-3.55v.31c0 1.567.434 2.406 1.225 2.406.635 0 .96-.466 1.054-1.46h1.286c-.17 1.647-1.038 2.609-2.356 2.609m1.007-5.061c0-1.072-.403-1.74-1.038-1.74-.697 0-1.023.544-1.147 1.88h2.185v-.14M233.411 63.724h1.457V61.97h-1.457zM83.096 12.672c-1.73 0-2.267.7-2.267 2.932v2.93h2.35v2.973h-2.35v17.177h-3.42V21.507h-1.772v-2.974h1.772v-3.921c0-2.149.164-2.768.99-3.635.865-.948 2.266-1.403 4.41-1.403.37 0 .576 0 1.151.042v3.18c-.37-.084-.534-.124-.864-.124M93.152 22.004a3.87 3.87 0 0 0-1.608 1.32c-.657.867-.824 1.65-.824 3.592v11.768H87.3v-20.15h3.049v2.85c1.319-2.27 2.886-3.345 4.988-3.345h.453v3.428c-1.278.04-1.73.123-2.638.537M106.424 38.684v-2.19c-1.32 1.942-2.516 2.685-4.205 2.685-2.967 0-4.987-2.93-4.987-7.225 0-4.13 2.184-6.937 5.44-6.937 1.236 0 2.142.33 3.381 1.282v-.58c0-1.775-.083-2.354-.29-3.056-.412-1.116-1.565-1.734-3.256-1.734a8.626 8.626 0 0 0-3.709.826v-3.053c1.32-.458 2.76-.663 4.204-.663 1.607 0 2.886.29 4.039.909 1.773.948 2.391 2.395 2.391 5.408v14.328h-3.008zm-2.97-10.696c-1.731 0-2.677 1.405-2.677 3.966 0 2.476.906 3.922 2.554 3.922 1.691 0 2.722-1.446 2.722-3.963 0-2.52-.95-3.925-2.598-3.925zM117.098 39.18c-1.443 0-2.803-.331-4.081-1.074V34.76c1.401 1.032 2.514 1.446 3.67 1.446 1.316 0 2.39-.95 2.39-2.148 0-.618-.29-1.444-.784-2.314-.37-.576-1.03-1.609-1.771-2.682l-.99-1.444c-1.566-2.271-2.145-3.717-2.145-5.203 0-2.562 2.062-4.377 5.03-4.377 1.236 0 2.347.29 3.543.867v3.138c-1.152-.7-2.06-1.033-2.966-1.033-1.155 0-2.021.785-2.021 1.818 0 .66.29 1.239 1.155 2.559l1.071 1.611 1.36 1.939c1.444 2.106 2.144 3.925 2.144 5.41 0 2.808-2.35 4.831-5.605 4.831M132.306 39.18c-4.369 0-6.717-3.717-6.717-10.654 0-6.688 2.39-10.487 6.594-10.487 3.997 0 6.387 3.55 6.387 9.538 0 .33-.04.743-.04 1.155v.166h-9.439v.826c0 4.17 1.155 6.4 3.257 6.4 1.689 0 2.554-1.237 2.801-3.881h3.421c-.452 4.376-2.762 6.936-6.264 6.936m2.678-13.46c0-2.848-1.071-4.625-2.762-4.625-1.853 0-2.72 1.445-3.047 4.997h5.809v-.372M148.337 22.004a3.846 3.846 0 0 0-1.606 1.32c-.66.867-.824 1.65-.824 3.592v11.768h-3.421v-20.15h3.049v2.85c1.32-2.27 2.886-3.345 4.988-3.345h.453v3.428c-1.279.04-1.73.123-2.639.537M162.817 38.684V25.14c0-1.404-.536-2.105-1.526-2.105-1.195 0-1.771.95-1.771 2.972v12.677h-4.74V9.574h4.74V20.31c1.07-1.57 2.226-2.271 3.832-2.271 2.72 0 4.164 1.98 4.164 5.738v14.907h-4.7M174.894 29.146v.703c0 3.22.781 4.954 2.183 4.954 1.029 0 1.73-.867 2.02-2.601h4.49c-.328 4.375-2.718 6.977-6.467 6.977-4.37 0-7.05-4.005-7.05-10.487 0-6.73 2.516-10.653 6.759-10.653 4.247 0 6.802 3.922 6.802 10.528v.579h-8.737zm2.019-6.855c-1.318 0-1.853 1.074-1.937 3.883h3.832c-.082-2.809-.62-3.883-1.895-3.883zM194.595 38.684V36.62c-1.116 1.776-2.31 2.56-3.958 2.56-3.008 0-5.029-2.848-5.029-7.184 0-4.087 2.02-6.69 5.11-6.69 1.321 0 2.473.454 3.422 1.321v-1.404c0-2.147-.907-2.972-3.174-2.972a8.422 8.422 0 0 0-3.337.662v-4.255c1.649-.454 2.926-.618 4.327-.618 1.607 0 2.883.247 3.956.784.7.33 1.278.826 1.73 1.444.784 1.076 1.03 2.024 1.03 4.172v14.245h-4.077zm-2.556-9.621c-1.28 0-1.94.95-1.94 2.808 0 1.775.66 2.684 2.02 2.684 1.36 0 2.02-.909 2.02-2.765 0-1.859-.66-2.727-2.1-2.727zM202.055 38.684h4.696V9.574h-4.696zM215.158 21.961v16.723h-4.698V21.961h-1.4v-3.428h1.4V13.21l4.698-1.941v7.265h1.36v3.428zM226.782 38.684V25.14c0-1.404-.536-2.105-1.526-2.105-1.196 0-1.771.95-1.771 2.972v12.677h-4.74V9.574h4.74V20.31c1.071-1.57 2.225-2.271 3.833-2.271 2.72 0 4.162 1.98 4.162 5.738v14.907h-4.698" mask="url(#d)"/>
    </g>
</svg>
