<?xml version="1.0" encoding="UTF-8"?>
<svg id="Isolation_Mode" data-name="Isolation Mode" xmlns="http://www.w3.org/2000/svg" viewBox="0 0 1015.22 144.88">
  <defs>
    <style>
      .cls-1 {
        fill: #0061a2;
      }

      .cls-2 {
        fill: #0088e0;
      }

      .cls-3 {
        fill: #007bcb;
      }

      .cls-4 {
        fill: #133d65;
      }
    </style>
  </defs>
  <g>
    <path class="cls-2" d="M273.54,99.27c-7.16,18.79-24.96,32.08-43.66,38.47-53.68,17.63-111.24-1.9-164.38-10.79C43.01,123.18,20.14,121.63,0,134.2c2.26-5.96,6.09-11.47,10.9-16.21,49.85-49.23,173.4,4.96,230.22-6.06,11.43-2.22,22.11-6.39,32.42-12.65h0Z"/>
    <polygon class="cls-2" points="170.96 40.74 136.77 0 102.58 40.74 136.77 81.49 170.96 40.74"/>
    <path class="cls-3" d="M251.31,101.58l-60.82-72.48-48.84,58.21,8.2,9.77c29.7,5.76,75.11,14.16,101.46,4.5Z"/>
    <path class="cls-1" d="M138.56,95.27L83.05,29.1,22.89,100.79c33.82-17.96,81.82-10.87,115.67-5.52Z"/>
  </g>
  <path class="cls-4" d="M347.16,124.17h-36.08v-9.82l9.18-5.1v-61.22l-9.18-5.1v-9.82h36.08v9.82l-9.18,5.1v61.22l9.18,5.1v9.82Z"/>
  <path class="cls-4" d="M401.46,103.77c0,4.6-.93,8.51-2.8,11.73-1.87,3.24-4.61,5.69-8.23,7.39-3.61,1.7-8.01,2.55-13.2,2.55-3.83,0-7.38-.32-10.65-.96-3.28-.63-6.39-1.63-9.37-2.99v-16.07c2.72,1.62,5.76,2.95,9.12,4.02,3.36,1.07,6.57,1.59,9.63,1.59,2.8,0,4.91-.54,6.31-1.59,1.4-1.06,2.1-2.62,2.1-4.65,0-1.19-.3-2.29-.89-3.32-.59-1.02-1.77-2.09-3.51-3.18-1.74-1.1-4.32-2.47-7.71-4.07-3.24-1.62-5.97-3.4-8.23-5.35-2.25-1.95-3.98-4.23-5.16-6.82-1.19-2.59-1.78-5.63-1.78-9.12,0-6.2,2.1-11.04,6.31-14.54,4.21-3.48,9.88-5.23,17.03-5.23,3.75,0,7.23.47,10.45,1.4,3.22.93,6.5,2.29,9.82,4.07l-4.84,12.88c-2.39-1.36-4.84-2.51-7.39-3.44-2.55-.93-5.06-1.4-7.52-1.4-2.21,0-3.95.47-5.23,1.4-1.28.93-1.91,2.25-1.91,3.95,0,1.19.32,2.25.96,3.18.63.93,1.82,1.91,3.57,2.94,1.74,1.02,4.18,2.39,7.33,4.07,3.32,1.62,6.15,3.38,8.48,5.3,2.33,1.91,4.14,4.17,5.42,6.76,1.28,2.59,1.91,5.76,1.91,9.49h-.01Z"/>
  <rect class="cls-4" x="413.19" y="27.25" width="17.48" height="96.92"/>
  <path class="cls-4" d="M472.49,53.14c7.39,0,13.03,2.09,16.9,6.24,3.87,4.17,5.8,10.33,5.8,18.49v46.29h-12.62l-2.94-9.44h-.38c-1.62,2.47-3.29,4.49-5.04,6.06-1.74,1.58-3.75,2.74-6,3.51-2.25.77-4.91,1.15-7.97,1.15-3.91,0-7.19-.97-9.82-2.94-2.63-1.96-4.61-4.57-5.93-7.85-1.32-3.27-1.98-6.96-1.98-11.03,0-7.31,2.18-12.81,6.57-16.52,4.38-3.7,10.77-5.72,19.19-6.06l9.56-.38v-2.68c0-3.91-.73-6.76-2.17-8.55-1.44-1.78-3.61-2.68-6.5-2.68-2.29,0-4.76.43-7.39,1.28-2.63.85-5.45,2.09-8.41,3.7l-4.84-12.62c3.32-1.96,6.97-3.44,10.96-4.46,3.99-1.02,8.33-1.54,13.01-1.54h-.01ZM472.36,92.04c-4.34.26-7.46,1.28-9.37,3.06-1.91,1.78-2.87,4.38-2.87,7.78,0,3.06.63,5.34,1.91,6.82,1.28,1.48,3.02,2.24,5.23,2.24,3.06,0,5.58-1.23,7.59-3.7,2-2.47,2.99-5.87,2.99-10.21v-6.24l-5.49.26h.01Z"/>
  <path class="cls-4" d="M544.42,53.14c6.46,0,11.46,2.1,14.98,6.31,3.53,4.21,5.3,10.48,5.3,18.81v45.91h-17.34v-41.06c0-4.93-.63-8.64-1.91-11.15-1.28-2.51-3.44-3.76-6.5-3.76-4.17,0-7.04,1.77-8.6,5.3-1.58,3.53-2.36,9.33-2.36,17.41v33.28h-17.47V54.43h13.65l2.04,9.06h.89c1.19-2.21,2.63-4.07,4.34-5.61s3.65-2.7,5.87-3.51c2.21-.81,4.6-1.21,7.15-1.21h-.04Z"/>
  <path class="cls-4" d="M615.83,27.25v23.6c0,1.62.07,3.53.19,5.73.12,2.21.27,4.51.45,6.89h-.51c-1.28-2.29-2.72-4.18-4.34-5.68-1.62-1.48-3.44-2.63-5.49-3.44-2.04-.81-4.29-1.21-6.76-1.21-6.8,0-12.2,3.14-16.19,9.44-3.99,6.3-6,15.17-6,26.66s1.98,20.48,5.93,26.78c3.95,6.3,9.41,9.44,16.38,9.44,2.63,0,4.91-.36,6.82-1.08,1.91-.73,3.65-1.77,5.23-3.13,1.58-1.36,2.99-3.06,4.27-5.1h.89l2.8,8.04h13.77V27.27h-17.47.01ZM616.21,91.53c0,6.72-.88,11.65-2.62,14.79-1.74,3.14-4.57,4.72-8.48,4.72-3.32,0-5.84-1.81-7.59-5.42-1.74-3.61-2.62-9.07-2.62-16.38s.85-12.27,2.55-15.87c1.7-3.61,4.21-5.42,7.52-5.42,4.07,0,6.97,1.66,8.67,4.97,1.7,3.32,2.55,8.37,2.55,15.17v3.44h.01Z"/>
  <path class="cls-4" d="M737.91,124.17h-17.73v-39.79h-27.03v39.79h-17.73V33.11h17.73v35.96h27.03v-35.96h17.73v91.06Z"/>
  <path class="cls-4" d="M778.93,53.27c5.61,0,10.37,1.28,14.28,3.83,3.91,2.55,6.9,6.16,8.99,10.84,2.09,4.68,3.13,10.29,3.13,16.83v9.32h-36.73c.08,5.87,1.34,10.26,3.76,13.2,2.41,2.94,6.06,4.4,10.91,4.4,3.4,0,6.54-.4,9.44-1.21,2.89-.81,5.95-2.1,9.18-3.9v14.02c-2.98,1.7-6.15,2.94-9.49,3.7-3.36.77-7.12,1.15-11.29,1.15-6.54,0-12.03-1.4-16.45-4.21-4.42-2.81-7.74-6.86-9.95-12.18-2.21-5.31-3.32-11.76-3.32-19.32s1.06-14.56,3.18-19.96c2.13-5.39,5.25-9.49,9.37-12.31,4.12-2.8,9.12-4.21,14.98-4.21h.01ZM779.17,66.53c-2.98,0-5.41,1.21-7.27,3.64-1.87,2.43-2.94,6.31-3.18,11.66h20.4c0-3.14-.38-5.87-1.15-8.16-.77-2.29-1.87-4.06-3.32-5.3-1.44-1.23-3.28-1.85-5.49-1.85h.01Z"/>
  <path class="cls-4" d="M843.96,53.14c7.39,0,13.03,2.09,16.9,6.24,3.87,4.17,5.8,10.33,5.8,18.49v46.29h-12.62l-2.94-9.44h-.38c-1.62,2.47-3.29,4.49-5.04,6.06-1.74,1.58-3.75,2.74-6,3.51-2.25.77-4.91,1.15-7.97,1.15-3.91,0-7.19-.97-9.82-2.94-2.63-1.96-4.61-4.57-5.93-7.85-1.32-3.27-1.98-6.96-1.98-11.03,0-7.31,2.18-12.81,6.57-16.52,4.38-3.7,10.77-5.72,19.19-6.06l9.56-.38v-2.68c0-3.91-.73-6.76-2.17-8.55-1.44-1.78-3.61-2.68-6.5-2.68-2.29,0-4.76.43-7.39,1.28-2.63.85-5.45,2.09-8.41,3.7l-4.84-12.62c3.32-1.96,6.97-3.44,10.96-4.46,3.99-1.02,8.33-1.54,13.01-1.54h-.01ZM843.84,92.04c-4.34.26-7.46,1.28-9.37,3.06-1.91,1.78-2.87,4.38-2.87,7.78,0,3.06.63,5.34,1.91,6.82s3.02,2.24,5.23,2.24c3.06,0,5.58-1.23,7.59-3.7,2-2.47,2.99-5.87,2.99-10.21v-6.24l-5.49.26h.01Z"/>
  <rect class="cls-4" x="881.96" y="27.25" width="17.46" height="96.92"/>
  <path class="cls-4" d="M940.24,110.92c1.54,0,3.1-.21,4.72-.63,1.62-.43,3.36-.93,5.23-1.54v13.51c-1.96.93-4.25,1.7-6.89,2.29-2.63.59-5.35.89-8.16.89-3.99,0-7.38-.77-10.14-2.29-2.76-1.54-4.84-3.95-6.24-7.27-1.4-3.32-2.1-7.56-2.1-12.76v-34.94h-7.52v-8.55l8.79-4.84,4.46-15.05h11.48v14.79h15.43v13.65h-15.43v35.33c0,2.39.54,4.21,1.59,5.49,1.06,1.28,2.66,1.91,4.79,1.91h-.01Z"/>
  <path class="cls-4" d="M978.49,27.25v20.91c0,2.89-.11,5.61-.32,8.16-.22,2.55-.54,4.88-.96,7.01h1.02c1.1-2.29,2.47-4.18,4.07-5.68,1.62-1.48,3.48-2.62,5.61-3.38,2.13-.77,4.42-1.15,6.89-1.15,4.34,0,8.01.96,11.03,2.87,3.02,1.91,5.34,4.72,6.96,8.41,1.62,3.7,2.43,8.31,2.43,13.84v45.91h-17.46v-41.06c0-5.1-.63-8.86-1.91-11.29-1.28-2.43-3.32-3.64-6.12-3.64s-5.16.82-6.82,2.48c-1.66,1.66-2.8,4.17-3.44,7.52-.63,3.36-.96,7.59-.96,12.69v33.28h-17.46V27.23l17.45.03Z"/>
</svg>